PathFileType	4	(X/Y/Z)	F:\MotionCapture\20160217\3\Generated_files\2_Test02-Dynamic.trc
DataRate	CameraRate	NumFrames	NumMarkers	Units	OrigDataRate	OrigDataStartFrame	OrigNumFrames
120.00	120.00	       7	39	mm	120.00	1	       627
Frame#	Time	Top.Head			Front.Head			Rear.Head			R.Shoulder			R.Offset			R.Elbow			R.Wrist			L.Shoulder			L.Elbow			L.Wrist			R.ASIS			L.ASIS			V.Sacral			R.Thigh			R.Knee			R.Shank			R.Ankle			R.Heel			R.Toe			L.Thigh			L.Knee			L.Shank			L.Ankle			L.Heel			L.Toe			R1			R2			R3			R4			R5			R6			R7			L1			L2			L3			L4			L5			L6			L7			V_Mid_ASIS			V_Pelvis_Origin			V_R.Hip_JC			V_L.Hip_JC			V_R.Knee_JC			V_L.Knee_JC			V_R.Ankle_JC			V_L.Ankle_JC			V_Mid_Hip			V_Mid_Shoulder			V_R.Hand			V_L.Hand			V_R.Toe_Offset_Static			V_L.Toe_Offset_Static			V_R.Toe_Offset			V_L.Toe_Offset			
		X1	Y1	Z1	X2	Y2	Z2	X3	Y3	Z3	X4	Y4	Z4	X5	Y5	Z5	X6	Y6	Z6	X7	Y7	Z7	X8	Y8	Z8	X9	Y9	Z9	X10	Y10	Z10	X11	Y11	Z11	X12	Y12	Z12	X13	Y13	Z13	X14	Y14	Z14	X15	Y15	Z15	X16	Y16	Z16	X17	Y17	Z17	X18	Y18	Z18	X19	Y19	Z19	X20	Y20	Z20	X21	Y21	Z21	X22	Y22	Z22	X23	Y23	Z23	X24	Y24	Z24	X25	Y25	Z25	X26	Y26	Z26	X27	Y27	Z27	X28	Y28	Z28	X29	Y29	Z29	X30	Y30	Z30	X31	Y31	Z31	X32	Y32	Z32	X33	Y33	Z33	X34	Y34	Z34	X35	Y35	Z35	X36	Y36	Z36	X37	Y37	Z37	X38	Y38	Z38	X39	Y39	Z39	

1	0.000	1952.31006	164.59203	1672.31067	1848.19861	163.32494	1578.49109	2066.70288	154.31184	1614.31775	2070.69019	339.14474	1370.05994	2177.78174	47.25240	1250.50330	2243.68579	412.63071	1095.94592	2265.72021	454.61823	837.39215	1978.24609	-57.47172	1375.58545	1925.15930	-164.76207	1059.90552	1731.77026	-81.72305	910.26300	2015.31580	265.34024	912.87213	2010.67603	-21.76784	897.08722	2239.79712	128.64569	913.73053	1863.95288	235.10255	605.30524	1890.94568	295.37939	478.95932	1845.44531	228.25122	249.44206	1868.63281	308.77188	76.98861	1927.80469	250.53419	39.95048	1725.78906	285.75378	71.51659	2067.90283	21.82128	561.20758	2220.73267	-25.82649	439.62863	2269.32373	48.49720	304.99030	2450.49927	-15.30330	96.71613	2517.24829	41.91793	97.36301	2323.04590	-10.45890	44.59241	1679.13782	268.87411	82.94382	1717.08057	250.54837	77.81097	1815.96069	218.26253	72.94728	1888.14832	217.65314	48.13942	1898.63477	291.32922	45.83201	1819.85742	315.07062	48.25685	1758.13232	323.83002	57.59050	2276.94263	12.69568	39.22644	2310.84961	28.23952	48.26891	2398.05078	70.61945	69.96545	2480.69751	73.28143	87.28297	2492.04688	1.58859	88.03285	2424.61841	-28.25077	50.15059	2365.20996	-42.85545	43.93470																																																	2515.45605	-27.18125	156.31332	
2	0.008	1943.51733	167.17404	1672.70178	1838.87549	165.46620	1579.00574	2057.86792	156.72247	1614.75403	2061.61499	341.41650	1370.55969	2169.18359	49.92952	1250.96753	2234.45142	414.14548	1096.12988	2257.30273	455.21854	836.90582	1969.56921	-55.82117	1376.00452	1917.61621	-162.81746	1059.84338	1724.37097	-80.71617	909.83771	2006.82275	268.38498	914.12866	2001.79480	-18.60892	897.47070	2230.48901	130.99292	914.08002	1855.61133	235.90471	608.21631	1882.00964	296.11023	479.37598	1840.32556	229.44897	249.84557	1866.07520	309.08664	77.93562	1925.76135	250.61824	39.96189	1724.14246	287.96198	69.59603	2058.00073	22.77700	560.95416	2211.46436	-24.89745	440.10324	2262.38428	48.24335	306.01068	2447.50220	-15.90199	100.17937	2514.46753	41.45125	103.90725	2322.58203	-10.63467	44.67656	1678.06873	270.07291	79.22787	1716.36548	252.99857	76.35615	1813.86975	219.00891	72.12418	1886.84485	219.12032	49.49845	1897.17810	291.46509	46.16604	1819.17175	315.93295	47.36222	1756.41492	326.11594	55.20662	2276.62622	12.70582	39.10922	2310.45337	27.97449	48.35472	2396.66479	70.33044	73.11719	2478.09912	71.86413	92.15884	2489.66504	1.14282	93.42529	2423.47876	-28.34128	53.12449	2364.79346	-43.15954	43.30360																																																	2512.15723	-27.08145	158.59552	
3	0.017	1934.60217	169.23953	1673.30017	1830.27490	167.72816	1579.51868	2048.64087	159.25346	1615.58252	2052.75903	344.32999	1371.04150	2160.23901	52.57876	1251.45508	2224.70776	416.11368	1095.76807	2247.82104	456.16266	836.40674	1961.29626	-53.60529	1376.39099	1910.55579	-160.73625	1060.37976	1718.34998	-79.92284	908.45874	1997.04089	270.73450	915.45123	1992.01306	-15.63971	897.54468	2220.93604	133.28111	914.75397	1846.96423	236.72229	611.10638	1873.66199	297.29721	479.71350	1835.62488	229.78889	248.96156	1861.83875	309.94482	77.52771	1924.07556	251.13040	40.27258	1722.28503	289.84454	66.85776	2047.70007	24.81107	561.52075	2201.96265	-24.97952	440.33563	2255.21289	48.31711	306.61844	2444.82959	-16.54141	105.09385	2511.03809	40.92437	110.77912	2322.09277	-10.74686	44.69436	1675.93567	272.15973	75.32604	1713.76013	255.09775	73.30779	1811.10779	219.58337	70.22491	1884.66968	218.26195	48.07721	1896.06799	292.06171	46.60789	1818.67688	316.71909	46.31874	1755.82141	327.04187	53.13067	2276.40161	12.60203	39.01852	2310.10864	27.64003	48.15549	2394.31738	69.82484	76.46241	2474.92700	71.50671	98.21533	2486.85791	0.13663	99.51387	2421.59229	-29.33357	55.55222	2363.71216	-43.38777	43.44687																																																	2464.36328	118.40414	74.65957	
4	0.025	1925.51184	171.52675	1674.67078	1820.36084	169.59537	1580.53491	2039.50476	161.58134	1616.73535	2043.52283	346.68317	1372.17090	2151.30396	55.14877	1252.41638	2214.78564	418.18719	1095.65149	2237.67285	456.75992	836.32874	1951.92737	-50.89009	1377.31812	1903.61768	-158.85875	1061.00952	1712.72693	-79.07082	907.03436	1987.18567	273.82089	917.95221	1982.31519	-12.58256	898.01764	2211.51709	135.38922	915.80933	1839.33325	238.15379	613.27838	1866.65271	298.85608	479.97894	1831.30945	231.12489	248.60530	1860.67700	310.15298	76.32432	1924.69189	249.22240	43.44938	1720.73560	291.58783	63.40866	2037.14185	26.03738	562.15881	2190.98315	-24.65529	440.49680	2246.70288	47.46206	307.12289	2441.56055	-17.11915	110.58685	2507.29858	40.31543	118.76127	2321.45288	-10.90715	44.72256	1674.31421	275.21661	72.46084	1711.86743	256.49854	69.85242	1809.08093	220.58076	69.06705	1883.54590	220.02762	49.46633	1895.42175	292.12500	46.58676	1817.75403	317.49997	44.43498	1754.67737	328.22787	49.97515	2276.22900	12.63110	38.94724	2309.35449	27.37078	48.06595	2391.64795	69.43436	79.66741	2471.34790	71.41547	105.64264	2483.38672	-0.18182	105.97019	2419.83911	-29.33280	59.47538	2362.92358	-43.08581	44.18557																																																	2458.09619	121.21646	75.05116	
5	0.033	1916.07813	173.49046	1675.58679	1811.44519	172.23199	1581.67529	2030.25208	163.68011	1618.11487	2034.57910	349.41510	1373.45239	2142.13330	57.48891	1253.63062	2204.64087	420.15973	1096.03650	2227.57520	458.03839	836.42395	1943.19666	-48.73182	1378.56775	1897.13806	-157.40912	1061.95215	1706.63037	-78.54299	906.15662	1977.99548	276.82889	919.81000	1973.12402	-10.15721	899.22906	2201.80884	137.45488	917.10089	1832.00366	240.26038	613.79749	1859.66638	300.46899	478.88675	1827.36060	232.20288	246.62410	1858.55310	309.58441	73.34086	1923.91565	249.43799	44.14132	1719.66943	292.47943	59.99566	2025.89502	27.67809	563.60260	2179.17847	-24.29968	440.40485	2238.09277	47.80394	307.85062	2437.39429	-17.64611	116.38633	2501.41626	39.36386	126.72664	2320.69116	-11.15245	44.83284	1673.31287	274.95895	67.17953	1710.29102	257.95459	66.69646	1807.57837	221.28908	67.53730	1882.36633	219.55801	48.43518	1894.64734	292.90521	46.67216	1817.53821	317.92111	43.22258	1754.19226	330.32922	47.69456	2276.07031	12.69181	38.91206	2308.30786	27.18449	47.98090	2387.94922	68.56008	83.39395	2466.31543	70.49971	111.77134	2477.28149	0.99472	112.65545	2417.58765	-29.61512	63.16257	2362.07349	-43.05185	45.06185																																																	2450.98389	124.42886	76.66769	
6	0.042	1906.90674	176.28494	1677.43079	1803.34497	174.38855	1582.53027	2021.31653	166.28287	1619.85168	2025.15039	351.86362	1375.07776	2132.98413	59.77395	1255.14575	2194.21094	422.68472	1096.57056	2216.15137	458.95114	836.59369	1933.77795	-45.67535	1379.93750	1890.60962	-155.23149	1063.36768	1701.77161	-78.36978	904.64496	1968.72119	279.92307	922.24286	1963.17651	-6.50219	900.74597	2192.03149	139.79326	918.62622	1824.78564	243.30273	612.77576	1854.98535	302.74783	477.77789	1823.79553	233.40929	245.66057	1855.00146	308.02847	68.89509	1923.20996	249.61082	44.84491	1718.38794	293.33096	57.18877	2014.50293	29.39983	564.45770	2166.43604	-24.65157	440.84290	2227.54932	46.73354	308.83044	2432.40015	-18.19925	122.52215	2495.68481	39.75822	135.71065	2319.84521	-11.37057	44.70929	1672.53064	275.83188	63.31075	1709.06531	258.50729	63.07840	1806.54749	221.74469	66.07157	1881.63037	219.91116	48.23387	1893.97168	293.55869	46.67720	1817.22021	318.64240	41.27287	1753.54993	332.11569	45.20447	2275.92773	12.75569	38.73447	2307.61499	27.28818	47.65023	2383.37646	67.44932	87.90280	2460.71948	69.88224	119.66184	2473.40479	0.09998	120.28611	2415.14014	-30.52632	67.70821	2360.70313	-42.76133	46.11612																																																	2481.35596	8.72483	165.16988	
7	0.050	1897.52246	178.32185	1678.97534	1796.08521	176.89020	1584.17090	2012.16467	168.59085	1621.85681	2016.20068	354.25412	1376.74292	2123.92700	62.39309	1256.79272	2183.16821	424.57840	1097.04089	2203.94287	459.41904	836.83502	1925.29468	-43.44945	1381.64404	1884.42419	-153.03683	1064.47351	1697.39661	-78.54034	903.47211	1959.16345	283.07428	924.13385	1953.61084	-4.40790	902.47943	2182.12109	142.13893	920.22858	1817.67566	246.97369	610.39935	1850.26111	305.22229	476.31586	1821.21826	233.94244	243.87451	1854.46582	307.99335	68.49461	1922.54834	249.54170	44.82151	1717.69238	293.93832	54.67966	2001.88269	30.56623	565.77826	2152.39282	-24.85858	440.77789	2217.04883	45.73759	309.86194	2426.58569	-19.15342	129.19598	2488.52783	39.42197	145.14351	2318.41113	-11.51364	44.71310	1669.59363	276.22025	57.74631	1708.12549	258.72272	60.81775	1805.68457	221.93282	64.73957	1881.22681	219.79861	48.11336	1893.64001	293.64679	47.00613	1817.15918	319.35352	41.22757	1752.90491	334.01715	43.91778	2275.88574	13.59472	39.80237	2306.45386	27.26885	47.59504	2378.85034	67.57613	92.63441	2454.00708	69.34195	127.94115	2467.86670	-0.54259	128.66446	2412.10742	-30.90983	72.94402	2359.03882	-42.08858	47.09212	
